<?xml version="1.0" encoding="UTF-8"?>
<svg id="_Слой_2" data-name="Слой 2" xmlns="http://www.w3.org/2000/svg" xmlns:xlink="http://www.w3.org/1999/xlink" viewBox="0 0 1080 1920">
  <defs>
    <style>
      .cls-1 {
        fill: url(#_Безымянный_градиент_183);
      }

      .cls-2 {
        fill: url(#_Безымянный_градиент_134);
      }

      .cls-3 {
        fill: #30243a;
      }

      .cls-4 {
        fill: url(#_Безымянный_градиент_138);
      }

      .cls-5 {
        fill: url(#_Безымянный_градиент_131);
      }

      .cls-6 {
        fill: url(#_Безымянный_градиент_138-2);
      }

      .cls-7 {
        fill: url(#_Безымянный_градиент_144);
      }

      .cls-8 {
        fill: url(#_Безымянный_градиент_140);
      }

      .cls-9 {
        fill: url(#_Безымянный_градиент_146);
      }

      .cls-10 {
        fill: url(#_Безымянный_градиент_155);
      }
    </style>
    <linearGradient id="_Безымянный_градиент_183" data-name="Безымянный градиент 183" x1="540" y1="40.58" x2="540" y2="1774.73" gradientUnits="userSpaceOnUse">
      <stop offset="0" stop-color="#1f0e3d"/>
      <stop offset=".52" stop-color="#312f62"/>
      <stop offset="1" stop-color="#2f2650"/>
    </linearGradient>
    <radialGradient id="_Безымянный_градиент_155" data-name="Безымянный градиент 155" cx="537.57" cy="866.3" fx="537.57" fy="866.3" r="125.63" gradientUnits="userSpaceOnUse">
      <stop offset=".57" stop-color="#e57974"/>
      <stop offset="1" stop-color="#df7f80"/>
    </radialGradient>
    <linearGradient id="_Безымянный_градиент_140" data-name="Безымянный градиент 140" x1="352.62" y1="1141.71" x2="282.09" y2="1084.42" gradientUnits="userSpaceOnUse">
      <stop offset=".2" stop-color="#30243a" stop-opacity="0"/>
      <stop offset=".84" stop-color="#fff"/>
    </linearGradient>
    <linearGradient id="_Безымянный_градиент_144" data-name="Безымянный градиент 144" x1="376.03" y1="1092.58" x2="280.93" y2="1029.51" gradientUnits="userSpaceOnUse">
      <stop offset=".15" stop-color="#30243a" stop-opacity="0"/>
      <stop offset=".94" stop-color="#fff"/>
    </linearGradient>
    <linearGradient id="_Безымянный_градиент_146" data-name="Безымянный градиент 146" x1="397.96" y1="1037.55" x2="337.64" y2="974.06" gradientUnits="userSpaceOnUse">
      <stop offset=".27" stop-color="#30243a" stop-opacity="0"/>
      <stop offset=".79" stop-color="#fff"/>
    </linearGradient>
    <linearGradient id="_Безымянный_градиент_134" data-name="Безымянный градиент 134" x1="677.49" y1="988.4" x2="535.41" y2="857.02" gradientUnits="userSpaceOnUse">
      <stop offset=".29" stop-color="#30243a" stop-opacity="0"/>
      <stop offset=".75" stop-color="#fff"/>
    </linearGradient>
    <linearGradient id="_Безымянный_градиент_138" data-name="Безымянный градиент 138" x1="589.53" y1="964.24" x2="549.2" y2="929.28" gradientUnits="userSpaceOnUse">
      <stop offset=".07" stop-color="#30243a" stop-opacity="0"/>
      <stop offset=".84" stop-color="#fff"/>
    </linearGradient>
    <linearGradient id="_Безымянный_градиент_138-2" data-name="Безымянный градиент 138" x1="622.35" y1="1046.05" x2="522.08" y2="958.22" xlink:href="#_Безымянный_градиент_138"/>
    <linearGradient id="_Безымянный_градиент_131" data-name="Безымянный градиент 131" x1="784" y1="1231.91" x2="700.99" y2="976.63" gradientUnits="userSpaceOnUse">
      <stop offset=".22" stop-color="#30243a" stop-opacity="0"/>
      <stop offset="1" stop-color="#fff"/>
    </linearGradient>
  </defs>
  <g id="_Слой_5" data-name="Слой 5">
    <g>
      <rect class="cls-1" width="1080" height="1920"/>
      <circle class="cls-10" cx="537.57" cy="866.3" r="125.63"/>
      <path class="cls-3" d="M0,1184.52l308.27-199.06,18.32,15.39c5.5-8.92,10.99-17.83,16.49-26.75,7.21,2.56,14.41,5.13,21.62,7.69l30.78-33.71h13.19c23.94-22.59,47.87-45.19,71.81-67.78,4.89,3.79,9.77,7.57,14.66,11.36,3.79-8.43,7.57-16.85,11.36-25.28,7.57,5.74,15.14,11.48,22.72,17.22-.85-10.99-1.71-21.98-2.56-32.98l106.99,67.42,32.24-1.47,35.91,43.97c18.56,.12,37.13,.24,55.69,.37,9.28,12.82,18.56,25.65,27.85,38.47,11.36,1.22,22.72,2.44,34.07,3.66,21.13,21.49,42.26,42.99,63.39,64.48l10.26-19.79,35.91,35.91c1.83-8.43,3.66-16.85,5.5-25.28,48.52,40.27,97.04,80.53,145.57,120.8v740.83H0v-735.48Z"/>
      <path class="cls-8" d="M315.6,1135.69l-30.78-36.27c24.73,7.82,49.46,15.63,74.19,23.45-14.47,4.27-28.94,8.55-43.42,12.82Z"/>
      <path class="cls-7" d="M329.52,1083.29l-51.66-29.68v-34.07l18.69,12.09,20.15-2.93,7.33,19.05,22.72-.73c9.65,15.45,19.3,30.9,28.94,46.35-15.39-3.36-30.78-6.72-46.17-10.08Z"/>
      <path class="cls-9" d="M367.63,1028.33l-33.34-27.85,25.28,5.13c-5.31-9.56-10.63-19.11-15.94-28.67,21.31,13.59,42.62,27.17,63.93,40.76l-39.94,10.63Z"/>
      <path class="cls-2" d="M699.21,961.42c-11.36-14.33-22.72-28.67-34.07-43-9.8,1.19-19.6,2.38-29.4,3.57-16.43-11.84-33.71-23.64-51.86-35.29-5.55-3.56-11.08-7.04-16.57-10.44-13.55-8.54-27.11-17.08-40.66-25.62,1.69,12.38,3.39,24.76,5.08,37.14-8.35-6.73-16.7-13.46-25.05-20.2,3.77,10.63,7.54,21.25,11.31,31.88,38.79,29.16,77.58,58.32,116.37,87.48h49.83l-25.34-31.14c13.45,1.88,26.91,3.76,40.36,5.63Z"/>
      <path class="cls-4" d="M548.99,930.14c9.68,11.16,19.36,22.32,29.04,33.48,7.56,.32,15.11,.64,22.67,.96-17.24-11.48-34.47-22.96-51.71-34.44Z"/>
      <path class="cls-6" d="M548.99,951.03l25.28,42.87-50.93-13.92,50.93,35.91c10.23,19.39,20.46,38.78,30.69,58.16,14.56-16.06,29.13-32.12,43.69-48.18-33.22-24.94-66.44-49.89-99.66-74.84Z"/>
      <path class="cls-5" d="M602.48,1249.63l-20.52-38.84-51.66-23.08-53.13-50.93-1.83-42.87,45.8,27.11-39.57-55.32-9.89-34.44,62.65,43.23-1.1-24.18,64.48,62.65,67.42,26.01-6.29-24.55,53.55,23.82-9.89-64.12-35.91-46.17,34.07,11.72-13.19-39.02,20.15,3.85-10.63-10.26,41.04,1.47-19.79-17.59,23.45,2.56,5.86-19.42,35.54,39.39,34.81,6.05,68.15,58.99,6.6-15.39,38.47,31.88,1.83-22.72,95.63,76.21s-54.96,19.79-63.02,18.32c-8.06-1.47-49.46-28.21-49.46-28.21l28.21,32.24-98.56,25.65-26.01-24.18,2.93,39.57-220.2,50.56Z"/>
    </g>
  </g>
</svg>