<?xml version="1.0" encoding="UTF-8"?>
<svg id="_Слой_2" data-name="Слой 2" xmlns="http://www.w3.org/2000/svg" viewBox="0 0 78.47 56.99">
  <defs>
    <style>
      .cls-1 {
        fill: #fff;
      }
    </style>
  </defs>
  <g id="_Слой_9" data-name="Слой 9">
    <g>
      <path class="cls-1" d="M26.42,46.89c.15-2.39-.05-4.67,.5-6.76,1.53-5.89,6.26-9.25,12.32-8.87,1.8,.11,2.68-.34,3.5-2.03,2.87-5.89,8.62-8.52,14.8-7.07,5.6,1.31,9.68,6.49,9.69,12.66,0,1.95,.57,2.76,2.42,3.51,5.43,2.19,8.32,6.47,8.78,12.28,.35,4.39-1.38,6.28-5.79,6.33-5.95,.08-11.89,.02-17.84,.02-9.54,0-19.07,0-28.61,0-4.55,0-6.32-1.16-6.56-4.27-.24-3.12,1.69-4.92,5.91-5.51,.39-.05,.75-.24,.89-.29Z"/>
      <path class="cls-1" d="M16.35,45.48c-.62,1.3-1.27,2.66-2.06,4.33-5.73-1.56-10.47-4.49-13.9-9.36-.43-.6-.54-2.15-.15-2.46,.93-.75,2.25-1.46,3.4-1.43,5.94,.16,11.11-1.55,15.42-5.67,7.06-6.75,8.33-17.31,3.27-25.65-.75-1.24-.81-2.91-1.19-4.38,1.6-.29,3.3-1.09,4.78-.8,7.91,1.56,13.76,6.08,17.56,13.18,2.61,4.88,2.55,4.92-2.39,8.42-1.66-6.77-5.19-12.04-12.28-15.37,2.52,8.07,2.4,15.36-1.49,22.27-3.89,6.93-9.91,11.02-17.85,13.56,2.24,1.09,4.49,2.18,6.89,3.35Z"/>
    </g>
  </g>
</svg>