<?xml version="1.0" encoding="UTF-8"?>
<svg id="_Слой_2" data-name="Слой 2" xmlns="http://www.w3.org/2000/svg" viewBox="0 0 71.31 42.66">
  <defs>
    <style>
      .cls-1 {
        fill: #fff;
      }
    </style>
  </defs>
  <g id="_Слой_9" data-name="Слой 9">
    <path class="cls-1" d="M8.9,30.43c-1.33-4.3-.9-8.18,1.3-11.74,3.1-5.02,7.5-7.79,13.55-7.28,2.07,.18,3.12-.29,4.21-2.32C32.12,1.32,39.35-1.81,47.18,1.03c6.45,2.34,10.76,7.12,10.33,14.65-.16,2.82,1.25,3.76,3.35,4.6,6.87,2.75,10,8.13,10.42,15.25,.28,4.75-1.89,6.98-6.74,7.04-7.48,.08-14.97,.04-22.46,.05-11.69,.01-23.38,.02-35.07,.03-4.68,0-6.74-1.47-7-5.03-.28-3.88,2.06-6.37,6.51-6.91,.6-.07,1.2-.14,2.37-.28Z"/>
  </g>
</svg>