<?xml version="1.0" encoding="UTF-8"?>
<svg id="_Слой_2" data-name="Слой 2" xmlns="http://www.w3.org/2000/svg" viewBox="0 0 80.54 55.17">
  <defs>
    <style>
      .cls-1 {
        fill: #fff;
      }
    </style>
  </defs>
  <g id="_Слой_9" data-name="Слой 9">
    <g>
      <path class="cls-1" d="M28,45.31c.72-3.26,1.09-6.03,1.95-8.64,1.58-4.78,6.22-7.68,11.26-6.97,2.29,.32,3.23-.59,4.26-2.41,5.1-8.99,13.03-9.23,19.83-3.42,2.16,1.84,3.02,5.64,3.62,8.71,.43,2.18,.59,3.53,3.01,4.45,5.6,2.14,8.48,6.48,8.61,12.55,.08,3.75-1.64,5.52-5.68,5.55-8.92,.05-17.85,.02-26.77,.02-6.77,0-13.54,0-20.31,0-3.86,0-5.87-1.39-5.99-4.14-.15-3.19,1.88-5.23,5.52-5.59,.4-.04,.79-.13,.69-.12Z"/>
      <g>
        <path class="cls-1" d="M50.22,18.96l-4.49,3.66c-2.89-2.55-6.69-4.1-10.84-4.1-9.04,0-16.38,7.33-16.38,16.38,0,3.67,1.21,7.07,3.25,9.8l-3.93,4.27c-.71-.86-1.36-1.78-1.93-2.74l3.09-2.57c.99-.82,1.12-2.29,.3-3.28-.82-.99-2.29-1.12-3.28-.3l-2.12,1.76c-.59-1.79-.97-3.69-1.08-5.66h3.24c1.29,0,2.33-1.04,2.33-2.33s-1.05-2.33-2.33-2.33h-3.02c.33-2.12,.95-4.14,1.83-6.01l2.7,1.56c1.11,.65,2.54,.26,3.18-.85,.65-1.11,.26-2.54-.85-3.18l-2.62-1.51c1.19-1.58,2.6-3,4.17-4.2l1.59,2.76c.65,1.11,2.07,1.5,3.18,.85,1.11-.64,1.5-2.07,.86-3.18l-1.66-2.86c2.04-.97,4.27-1.64,6.61-1.94v3.09c0,1.29,1.05,2.33,2.33,2.33s2.33-1.04,2.33-2.33v-3.21c2.04,.17,4,.61,5.85,1.29l-1.6,2.55c-.68,1.09-.36,2.52,.73,3.21,1.09,.68,2.52,.36,3.21-.73l1.85-2.95c1.26,.79,2.43,1.72,3.5,2.75Z"/>
        <g>
          <path class="cls-1" d="M20.74,26.24c-.64,1.11-2.07,1.5-3.18,.85l-2.7-1.56-9.19-5.31c-1.11-.64-1.5-2.07-.86-3.18,.43-.74,1.21-1.16,2.02-1.16,.39,0,.79,.1,1.16,.31l9.28,5.36,2.62,1.51c1.11,.64,1.5,2.07,.85,3.18Z"/>
          <path class="cls-1" d="M18.39,33.87c0,1.29-1.05,2.33-2.33,2.33H2.33c-1.29,0-2.33-1.04-2.33-2.33,0-.64,.26-1.23,.68-1.64,.42-.42,1-.68,1.64-.68h13.73c1.29,0,2.33,1.04,2.33,2.33Z"/>
          <path class="cls-1" d="M18.99,43.67l-3.09,2.57-7.47,6.22c-.99,.82-2.46,.69-3.28-.3-.36-.44-.54-.97-.54-1.49,0-.67,.29-1.33,.84-1.79l8.44-7.02,2.12-1.76c.99-.82,2.46-.69,3.28,.3,.82,.99,.69,2.46-.3,3.28Z"/>
          <path class="cls-1" d="M26.22,20.96c-1.11,.65-2.54,.26-3.18-.85l-1.59-2.76-5.28-9.14c-.64-1.11-.26-2.54,.86-3.18,.36-.21,.76-.31,1.16-.31,.81,0,1.59,.41,2.02,1.16l5.21,9.03,1.66,2.86c.64,1.11,.26,2.54-.86,3.18Z"/>
          <path class="cls-1" d="M36.69,2.33v13.73c0,1.29-1.04,2.33-2.33,2.33s-2.33-1.04-2.33-2.33V2.33c0-1.29,1.05-2.33,2.33-2.33,.64,0,1.23,.26,1.64,.68,.42,.42,.68,1,.68,1.65Z"/>
          <path class="cls-1" d="M52.53,6.3c0,.42-.12,.85-.36,1.24l-5.45,8.68-1.85,2.95c-.68,1.09-2.12,1.42-3.21,.73-1.09-.68-1.42-2.12-.73-3.21l1.6-2.55,5.69-9.08c.68-1.09,2.12-1.42,3.21-.74,.7,.44,1.09,1.2,1.09,1.98Z"/>
        </g>
      </g>
    </g>
  </g>
</svg>