<?xml version="1.0" encoding="UTF-8"?>
<svg id="_Слой_2" data-name="Слой 2" xmlns="http://www.w3.org/2000/svg" viewBox="0 0 40.64 59.9">
  <defs>
    <style>
      .cls-1 {
        fill: #fff;
      }
    </style>
  </defs>
  <g id="_Слой_9" data-name="Слой 9">
    <g>
      <path class="cls-1" d="M.02,38.29c-.33-6.2,2.69-11.38,5.43-16.46,3.65-6.74,7.91-13.16,12.03-19.64,1.87-2.94,3.79-2.93,5.67,.11,4.91,7.91,9.98,15.75,14.38,23.94,3.96,7.36,4.11,15.26,.53,22.94-6.16,13.22-25,13.75-32.66,4.19C1.77,48.82,.23,43.87,.02,38.29ZM20.54,6.77c-1.08,1.6-1.7,2.43-2.23,3.31-3.34,5.6-6.46,11.35-10.06,16.79-2.69,4.07-3.9,8.42-3.31,13.08,1.44,11.38,9.07,16.81,19.91,14.32,8.99-2.06,13.65-14.33,9.59-23.1-3.8-8.22-8.95-15.82-13.91-24.39Z"/>
      <path class="cls-1" d="M12.75,35.07c.71,1.21,1.11,2.59,1.06,3.99-.08,2.68,1.13,4.61,3.78,5.69,1.54,.63,2.7,1.74,1.67,3.24-.49,.72-2.33,1.01-3.4,.78-5.49-1.16-7.61-9.56-6.1-13.23,.16-.4,.54-.71,.97-.99,.67-.45,1.59-.22,1.99,.48,0,.01,.01,.02,.02,.04Z"/>
    </g>
  </g>
</svg>