<?xml version="1.0" encoding="UTF-8"?>
<svg id="_Слой_2" data-name="Слой 2" xmlns="http://www.w3.org/2000/svg" viewBox="0 0 53.09 58.74">
  <defs>
    <style>
      .cls-1 {
        fill: #fff;
      }
    </style>
  </defs>
  <g id="_Слой_9" data-name="Слой 9">
    <path class="cls-1" d="M28.88,19.61c.27-5.1-1.31-9.64-3.87-14.01-.76-1.29-1.18-3.45-.59-4.62,.42-.83,2.88-1.15,4.28-.9,10.6,1.9,18.31,7.84,22.18,17.85,5.24,13.55,1.06,28.16-11.55,36.23-12.15,7.77-28.33,5.43-37.73-5.41-1.09-1.25-1.09-3.44-1.6-5.19,1.48-.42,2.96-1.21,4.44-1.2,12.57,.02,20.22-6.77,24.11-17.59,.56-1.56,.25-3.43,.34-5.16Zm4.44-12.01c4.34,20.81-2.79,34.5-23.02,40.77,5.3,4.57,16.81,6.01,24.61,1.52,8.06-4.64,13.17-13.7,12.18-22.76-.96-8.9-5.45-15.39-13.78-19.54Z"/>
  </g>
</svg>