<?xml version="1.0" encoding="UTF-8"?>
<svg id="_Слой_2" data-name="Слой 2" xmlns="http://www.w3.org/2000/svg" viewBox="0 0 67.52 57.13">
  <defs>
    <style>
      .cls-1 {
        fill: #fff;
      }
    </style>
  </defs>
  <g id="_Слой_9" data-name="Слой 9">
    <g>
      <path class="cls-1" d="M12.6,28.78c.1,.53-.32,1.02-.86,1.06-.77,.07-1.53,.12-2.27,.27-2.42,.48-3.87,2.51-3.75,5.07,.13,2.61,1.66,3.73,4.1,3.89,.48,.03,.97,.09,1.44,.03,2.19-.27,3.04,.52,3.01,2.87-.03,2.28-.95,2.68-2.96,2.66-5.87-.04-9.22-1.95-10.73-6.38-1.73-5.11,.38-9.94,5.72-13.35,1.77-8.91,6.54-14.53,15.5-15.91,.97-.15,2.02-1,2.68-1.81C29.24,1.34,35.26-1.13,42.62,.48c8.14,1.78,12.65,7.44,14.21,16.05,7.45,4.44,10.9,10.77,10.68,18.86-.12,4.39-3.6,8.17-8.08,8.87-1.06,.16-2.15,.16-3.28,.12-1.46-.05-2.62-1.25-2.62-2.71h0c0-1.43,1.11-2.61,2.54-2.7,.45-.03,.89-.06,1.34-.1,3.23-.31,4.76-1.94,4.49-5.11-.49-5.82-3.13-10.27-8.78-12.4-1.62-.61-2.15-1.34-2.14-3.08,.04-6.26-3.83-11.16-9.54-12.41-5.65-1.24-10.91,1.5-13.83,6.98-.45,.85-1.76,1.81-2.63,1.77-8.47-.42-14.09,5.91-12.4,14.16,0,0,0,0,0,0Z"/>
      <path class="cls-1" d="M20.57,54.25c-.8,0-1.44-.65-1.44-1.44V29.54c0-.8,.65-1.44,1.44-1.44s1.44,.65,1.44,1.44v23.27c0,.8-.65,1.44-1.44,1.44Z"/>
      <path class="cls-1" d="M20.57,57.13h0c-.42,0-.81-.21-1.04-.56l-4.07-6.16c-.38-.57-.22-1.34,.35-1.72,.57-.38,1.34-.22,1.72,.35l3.03,4.59,3.03-4.59c.38-.57,1.15-.73,1.72-.35,.57,.38,.73,1.15,.35,1.72l-4.07,6.16c-.23,.35-.62,.56-1.04,.56Z"/>
      <path class="cls-1" d="M33.3,51.17c-.8,0-1.44-.65-1.44-1.44V26.46c0-.8,.65-1.44,1.44-1.44s1.44,.65,1.44,1.44v23.27c0,.8-.65,1.44-1.44,1.44Z"/>
      <path class="cls-1" d="M33.3,54.05h0c-.42,0-.81-.21-1.04-.56l-4.07-6.16c-.38-.57-.22-1.34,.35-1.72,.57-.38,1.34-.22,1.72,.35l3.03,4.59,3.03-4.59c.38-.57,1.15-.73,1.72-.35,.57,.38,.73,1.15,.35,1.72l-4.07,6.16c-.23,.35-.62,.56-1.04,.56Z"/>
      <path class="cls-1" d="M46.02,54.25c-.8,0-1.44-.65-1.44-1.44V29.54c0-.8,.65-1.44,1.44-1.44s1.44,.65,1.44,1.44v23.27c0,.8-.65,1.44-1.44,1.44Z"/>
      <path class="cls-1" d="M46.02,57.13h0c-.42,0-.81-.21-1.04-.56l-4.07-6.16c-.38-.57-.22-1.34,.35-1.72,.57-.38,1.34-.22,1.72,.35l3.03,4.59,3.03-4.59c.38-.57,1.15-.73,1.72-.35,.57,.38,.73,1.15,.35,1.72l-4.07,6.16c-.23,.35-.62,.56-1.04,.56Z"/>
    </g>
  </g>
</svg>