<?xml version="1.0" encoding="UTF-8"?>
<svg id="_Слой_2" data-name="Слой 2" xmlns="http://www.w3.org/2000/svg" viewBox="0 0 72.02 70.96">
  <defs>
    <style>
      .cls-1 {
        fill: #fff;
      }
    </style>
  </defs>
  <g id="_Слой_9" data-name="Слой 9">
    <g>
      <path class="cls-1" d="M13.42,31.6c-6.22,1.57-7.63,2.69-7.26,6.08,.44,4.06,3.02,4.02,5.69,3.99,1.66-.02,3.01,1.33,3.01,2.98h0c0,1.55-1.19,2.85-2.73,2.98-5.15,.44-9.26-1.68-11.15-5.87-2.29-5.07-.5-10.6,4.45-14.29,.78-.58,1.42-1.66,1.67-2.63,2.23-8.59,7.32-13.99,16.38-15.28,.93-.13,1.96-.98,2.58-1.78C31.12,1.33,37.79-1.22,45.66,.55c7.64,1.71,12.5,6.77,14.25,14.49,.44,1.92,1.28,3.14,2.96,4.25,6.42,4.27,9.2,10.57,9.15,18.11-.03,5.5-4.4,9.65-10.38,10.13-.51,.04-1.02,.06-1.54,.06-1.65,0-2.99-1.33-2.99-2.99v-.02c0-1.64,1.32-2.94,2.95-2.98,.28,0,.56-.02,.84-.04,3.72-.27,5.46-2.17,5.11-5.8-.6-6.08-3.37-10.77-9.33-12.91-1.97-.71-2.32-1.73-2.31-3.6,.02-6.33-4.08-11.58-9.83-12.87-6.25-1.41-11.77,1.27-14.92,7.04-.52,.95-1.75,2.13-2.67,2.15-10.06,.22-15.03,5.91-13.52,16.03Z"/>
      <path class="cls-1" d="M41.09,62.22c1.06-.6,1.82-1.01,2.56-1.46,.76-.45,1.54-.65,2.02,.26,.47,.88-.1,1.45-.87,1.87-.75,.4-1.47,.86-2.4,1.41,.96,.58,1.75,1.07,2.56,1.53,.75,.43,1.15,1.04,.69,1.83-.48,.82-1.21,.68-1.93,.24-.77-.46-1.56-.89-2.62-1.5,0,1.2-.01,2.16,0,3.12,.01,.82-.3,1.42-1.17,1.43-.86,.01-1.22-.61-1.24-1.4-.03-.94,0-1.89,0-3.08-1.01,.56-1.87,1-2.7,1.49-.72,.42-1.35,.4-1.81-.34-.49-.8-.05-1.33,.6-1.74,.79-.5,1.61-.95,2.67-1.57-.94-.56-1.7-1.01-2.46-1.46-.72-.43-1.37-.94-.81-1.87,.54-.89,1.29-.67,2.04-.22,.73,.44,1.48,.85,2.47,1.41,0-1.12,0-2,0-2.89,0-.87,.23-1.62,1.26-1.61,.98,.01,1.16,.73,1.15,1.56-.02,.91,0,1.82,0,2.97Z"/>
      <path class="cls-1" d="M51.82,52.74c.75-.43,1.28-.72,1.8-1.03,.53-.32,1.09-.45,1.42,.18,.33,.62-.07,1.02-.62,1.32-.53,.28-1.04,.61-1.69,1,.68,.41,1.24,.75,1.8,1.08,.53,.3,.81,.73,.49,1.29-.34,.58-.85,.48-1.36,.17-.54-.33-1.1-.63-1.85-1.06,0,.85,0,1.52,0,2.2,0,.58-.21,1-.82,1.01-.6,0-.86-.43-.87-.99-.02-.66,0-1.33,0-2.17-.71,.39-1.32,.71-1.9,1.05-.51,.29-.95,.28-1.27-.24-.35-.56-.03-.94,.42-1.22,.56-.35,1.14-.67,1.88-1.11-.67-.39-1.2-.71-1.73-1.03-.51-.3-.97-.67-.57-1.32,.38-.63,.91-.47,1.43-.15,.52,.31,1.04,.6,1.74,1,0-.79,0-1.41,0-2.03,0-.61,.16-1.14,.89-1.14,.69,0,.82,.52,.81,1.1-.01,.64,0,1.28,0,2.09Z"/>
      <path class="cls-1" d="M47.46,42.22c.59-.34,1.01-.56,1.42-.81,.42-.25,.86-.36,1.12,.14,.26,.49-.05,.81-.49,1.04-.42,.22-.82,.48-1.33,.78,.54,.32,.97,.59,1.42,.85,.41,.24,.64,.58,.38,1.02-.27,.45-.67,.38-1.07,.13-.43-.26-.87-.5-1.46-.83,0,.67,0,1.2,0,1.73,0,.45-.17,.79-.65,.8-.47,0-.68-.34-.69-.78-.01-.52,0-1.05,0-1.71-.56,.31-1.04,.56-1.5,.83-.4,.23-.75,.22-1-.19-.27-.44-.03-.74,.33-.96,.44-.28,.9-.53,1.48-.87-.52-.31-.94-.56-1.37-.81-.4-.24-.76-.52-.45-1.04,.3-.49,.72-.37,1.13-.12,.41,.24,.82,.47,1.37,.78,0-.62,0-1.11,0-1.6,0-.48,.13-.9,.7-.89,.55,0,.65,.41,.64,.87,0,.5,0,1.01,0,1.65Z"/>
      <path class="cls-1" d="M45.56,30.72c-.46,1.1-.65,1.79-1.01,2.38-5.61,9.25-11.2,18.5-16.91,27.68-.61,.99-1.93,1.99-3.03,2.13-2.58,.33-3.71-2.36-2.13-5.05,2.7-4.6,5.47-9.15,8.3-13.67,3.09-4.94,6.2-9.87,9.49-14.67,.53-.77,2.15-1.37,3.05-1.15,.9,.22,1.53,1.56,2.24,2.35Z"/>
      <path class="cls-1" d="M33.96,30.46c-1.87,3.27-3.39,6.03-5.01,8.73-4.26,7.09-8.55,14.16-12.86,21.22-.47,.78-1.01,1.91-1.71,2.06-1.15,.26-2.85,.3-3.57-.37-.68-.63-.95-2.62-.45-3.46,3.19-5.45,6.7-10.71,9.99-16.1,2.55-4.16,4.99-8.4,7.38-12.65,.93-1.66,2.18-2.67,3.94-1.9,.98,.43,1.6,1.7,2.28,2.48Z"/>
    </g>
  </g>
</svg>