<?xml version="1.0" encoding="UTF-8"?>
<svg id="_Слой_2" data-name="Слой 2" xmlns="http://www.w3.org/2000/svg" viewBox="0 0 72.02 63.11">
  <defs>
    <style>
      .cls-1 {
        fill: #fff;
      }
    </style>
  </defs>
  <g id="_Слой_9" data-name="Слой 9">
    <g>
      <path class="cls-1" d="M13.42,31.6c-6.22,1.57-7.63,2.69-7.26,6.08,.44,4.06,3.02,4.02,5.69,3.99,1.66-.02,3.01,1.33,3.01,2.98h0c0,1.55-1.19,2.85-2.73,2.98-5.15,.44-9.26-1.68-11.15-5.87-2.29-5.07-.5-10.6,4.45-14.29,.78-.58,1.42-1.66,1.67-2.63,2.23-8.59,7.32-13.99,16.38-15.28,.93-.13,1.96-.98,2.58-1.78C31.12,1.33,37.79-1.22,45.66,.55c7.64,1.71,12.5,6.77,14.25,14.49,.44,1.92,1.28,3.14,2.96,4.25,6.42,4.27,9.2,10.57,9.15,18.11-.03,5.5-4.4,9.65-10.38,10.13-.51,.04-1.02,.06-1.54,.06-1.65,0-2.99-1.33-2.99-2.99v-.02c0-1.64,1.32-2.94,2.95-2.98,.28,0,.56-.02,.84-.04,3.72-.27,5.46-2.17,5.11-5.8-.6-6.08-3.37-10.77-9.33-12.91-1.97-.71-2.32-1.73-2.31-3.6,.02-6.33-4.08-11.58-9.83-12.87-6.25-1.41-11.77,1.27-14.92,7.04-.52,.95-1.75,2.13-2.67,2.15-10.06,.22-15.03,5.91-13.52,16.03Z"/>
      <path class="cls-1" d="M45.68,30.72c-.46,1.1-.65,1.79-1.01,2.38-5.61,9.25-11.2,18.5-16.91,27.68-.61,.99-1.93,1.99-3.03,2.13-2.58,.33-3.71-2.36-2.13-5.05,2.7-4.6,5.47-9.15,8.3-13.67,3.09-4.94,6.2-9.87,9.49-14.67,.53-.77,2.15-1.37,3.05-1.15,.9,.22,1.53,1.56,2.24,2.35Z"/>
      <path class="cls-1" d="M57.38,30.72c-.54,1.3-.79,2.19-1.25,2.95-5.39,8.95-10.82,17.87-16.22,26.82-1.17,1.93-2.69,3.54-4.93,2.01-2.21-1.5-1.2-3.33,.01-5.29,5.37-8.68,10.56-17.48,15.81-26.23,.37-.61,.6-1.45,1.15-1.79,.95-.6,2.29-1.45,3.1-1.16,.99,.35,1.6,1.77,2.34,2.69Z"/>
      <path class="cls-1" d="M34.08,30.46c-1.87,3.27-3.39,6.03-5.01,8.73-4.26,7.09-8.55,14.16-12.86,21.22-.47,.78-1.01,1.91-1.71,2.06-1.15,.26-2.85,.3-3.57-.37-.68-.63-.95-2.62-.45-3.46,3.19-5.45,6.7-10.71,9.99-16.1,2.55-4.16,4.99-8.4,7.38-12.65,.93-1.66,2.18-2.67,3.94-1.9,.98,.43,1.6,1.7,2.28,2.48Z"/>
    </g>
  </g>
</svg>