<?xml version="1.0" encoding="UTF-8"?>
<svg id="_Слой_2" data-name="Слой 2" xmlns="http://www.w3.org/2000/svg" viewBox="0 0 72.02 61.08">
  <defs>
    <style>
      .cls-1 {
        fill: #fff;
      }
    </style>
  </defs>
  <g id="_Слой_9" data-name="Слой 9">
    <g>
      <path class="cls-1" d="M13.42,31.6c-6.22,1.57-7.63,2.69-7.26,6.08,.44,4.06,3.02,4.02,5.69,3.99,1.66-.02,3.01,1.33,3.01,2.98h0c0,1.55-1.19,2.85-2.73,2.98-5.15,.44-9.26-1.68-11.15-5.87-2.29-5.07-.5-10.6,4.45-14.29,.78-.58,1.42-1.66,1.67-2.63,2.23-8.59,7.32-13.99,16.38-15.28,.93-.13,1.96-.98,2.58-1.78C31.12,1.33,37.79-1.22,45.66,.55c7.64,1.71,12.5,6.77,14.25,14.49,.44,1.92,1.28,3.14,2.96,4.25,6.42,4.27,9.2,10.57,9.15,18.11-.03,5.5-4.4,9.65-10.38,10.13-.51,.04-1.02,.06-1.54,.06-1.65,0-2.99-1.33-2.99-2.99v-.02c0-1.64,1.32-2.94,2.95-2.98,.28,0,.56-.02,.84-.04,3.72-.27,5.46-2.17,5.11-5.8-.6-6.08-3.37-10.77-9.33-12.91-1.97-.71-2.32-1.73-2.31-3.6,.02-6.33-4.08-11.58-9.83-12.87-6.25-1.41-11.77,1.27-14.92,7.04-.52,.95-1.75,2.13-2.67,2.15-10.06,.22-15.03,5.91-13.52,16.03Z"/>
      <path class="cls-1" d="M38.94,39.36c2.65-1.5,4.53-2.52,6.36-3.62,1.88-1.12,3.83-1.6,5.02,.65,1.16,2.19-.24,3.61-2.17,4.64-1.87,1-3.66,2.14-5.97,3.51,2.4,1.44,4.36,2.65,6.36,3.8,1.86,1.06,2.87,2.58,1.72,4.55-1.19,2.03-3,1.69-4.8,.6-1.91-1.15-3.87-2.22-6.52-3.73,0,2.99-.03,5.37,0,7.75,.03,2.03-.76,3.54-2.9,3.56-2.13,.03-3.02-1.51-3.08-3.48-.06-2.35-.01-4.69-.01-7.65-2.52,1.38-4.64,2.5-6.71,3.7-1.79,1.04-3.35,1-4.49-.86-1.22-1.98-.11-3.31,1.5-4.32,1.97-1.24,4.01-2.37,6.63-3.9-2.35-1.39-4.23-2.51-6.11-3.62-1.8-1.06-3.4-2.35-2.02-4.64,1.33-2.21,3.2-1.66,5.06-.54,1.82,1.1,3.68,2.11,6.15,3.51,0-2.79,0-4.98,0-7.18,0-2.17,.57-4.03,3.14-4,2.44,.03,2.89,1.82,2.85,3.88-.04,2.26-.01,4.52-.01,7.38Z"/>
    </g>
  </g>
</svg>