<?xml version="1.0" encoding="UTF-8"?>
<svg id="_Слой_2" data-name="Слой 2" xmlns="http://www.w3.org/2000/svg" viewBox="0 0 47.62 69.42">
  <defs>
    <style>
      .cls-1 {
        fill: #fff;
      }
    </style>
  </defs>
  <g id="_Слой_9" data-name="Слой 9">
    <g>
      <path class="cls-1" d="M30.43,24.86c0,2.02,.06,4.04-.01,6.05-.15,4.14,.26,7.8,3.01,11.49,4.22,5.67,2.68,16.28-2.2,21.42-5.57,5.88-14.06,6.98-21.31,3.98C-1.32,63.15-2.46,46.35,3.75,39.8c.86-.91,1.34-2.53,1.37-3.83,.13-7.21,.03-14.41,.07-21.62,.04-7.63,5.37-13.11,12.7-13.15,7.16-.04,12.52,5.63,12.54,13.29,.01,3.46,0,6.92,0,10.38Zm-5.08,1.6c0-4.23,.07-8.46-.02-12.68-.08-3.66-2.27-6.36-5.57-7.14-5.15-1.21-9.41,2.08-9.47,7.55-.1,7.88-.07,15.76,0,23.64,.02,1.83-.26,3.29-1.8,4.53-2.51,2.03-3.71,4.72-3.72,8.04,0,4.87,1.11,9.06,5.58,11.84,4.25,2.65,8.62,3.14,13.16,1.04,6.8-3.15,10.22-13.29,5.67-18.29-3.31-3.63-4.29-7.33-3.85-11.89,.21-2.19,.04-4.42,.03-6.63Z"/>
      <path class="cls-1" d="M40.4,14.5c-3.95,.03-7.29-3.13-7.38-7C32.91,3.56,36.27,.08,40.26,0c3.9-.08,7.39,3.41,7.37,7.35-.03,3.89-3.29,7.11-7.23,7.15Zm1.58-5.64c1.01-.76,1.04-2.26,.07-3.07-.66-.55-1.17-.91-1.65-.87-.93,.09-2.38,1.47-2.39,2.3-.02,.84,1.36,2.28,2.29,2.41,.47,.07,1.01-.27,1.69-.78Z"/>
      <path class="cls-1" d="M16.07,24.84h3.53c1.25,0,2.33,.98,2.35,2.22,0,0,0,.01,0,.02,.03,2.97,.15,5.96-.02,8.92-.22,3.91,.29,7.29,3.28,10.38,2.87,2.96,2.75,7.29,.66,10.04-3.09,4.07-7.79,5.92-11.59,3.72-6.81-3.95-8.17-9.64-2.28-16.01,1.28-1.38,1.72-2.54,1.7-4.22-.04-4.13-.03-8.25,0-12.38,0-.14,0-.27,.01-.41,.05-1.27,1.08-2.28,2.35-2.28Z"/>
    </g>
  </g>
</svg>