<?xml version="1.0" encoding="UTF-8"?>
<svg id="_Слой_2" data-name="Слой 2" xmlns="http://www.w3.org/2000/svg" viewBox="0 0 72.02 75.53">
  <defs>
    <style>
      .cls-1 {
        fill: #fff;
      }
    </style>
  </defs>
  <g id="_Слой_9" data-name="Слой 9">
    <g>
      <path class="cls-1" d="M13.42,31.6c-6.22,1.57-7.63,2.69-7.26,6.08,.44,4.06,3.02,4.02,5.69,3.99,1.66-.02,3.01,1.33,3.01,2.98h0c0,1.55-1.19,2.85-2.73,2.98-5.15,.44-9.26-1.68-11.15-5.87-2.29-5.07-.5-10.6,4.45-14.29,.78-.58,1.42-1.66,1.67-2.63,2.23-8.59,7.32-13.99,16.38-15.28,.93-.13,1.96-.98,2.58-1.78C31.12,1.33,37.79-1.22,45.66,.55c7.64,1.71,12.5,6.77,14.25,14.49,.44,1.92,1.28,3.14,2.96,4.25,6.42,4.27,9.2,10.57,9.15,18.11-.03,5.5-4.4,9.65-10.38,10.13-.51,.04-1.02,.06-1.54,.06-1.65,0-2.99-1.33-2.99-2.99v-.02c0-1.64,1.32-2.94,2.95-2.98,.28,0,.56-.02,.84-.04,3.72-.27,5.46-2.17,5.11-5.8-.6-6.08-3.37-10.77-9.33-12.91-1.97-.71-2.32-1.73-2.31-3.6,.02-6.33-4.08-11.58-9.83-12.87-6.25-1.41-11.77,1.27-14.92,7.04-.52,.95-1.75,2.13-2.67,2.15-10.06,.22-15.03,5.91-13.52,16.03Z"/>
      <path class="cls-1" d="M21.81,68.68c1.82-4.75,3.92-10.24,6.16-16.08H15.21c.57-1.13,.77-1.99,1.3-2.51,6.83-6.73,13.71-13.41,20.58-20.1,.71-.69,1.45-1.35,2.18-2.02,.22,.16,.45,.32,.67,.47-2.77,5.35-5.54,10.71-8.58,16.57h14.81c-8.49,8.25-16.62,16.16-24.36,23.68Z"/>
      <path class="cls-1" d="M46.51,52.39c-1.55,3.1-3.09,6.2-4.89,9.79h8.2c.07,.23,.14,.45,.22,.68-4.21,4.22-8.25,8.61-12.61,12.67-.32-.25-.64-.5-.96-.75,.91-2.56,1.83-5.12,2.86-8.02h-6.81c4.46-4.74,9.08-9.65,13.7-14.56,.09,.06,.19,.13,.28,.19Z"/>
    </g>
  </g>
</svg>