<?xml version="1.0" encoding="UTF-8"?>
<svg id="_Слой_2" data-name="Слой 2" xmlns="http://www.w3.org/2000/svg" viewBox="0 0 78.54 66.7">
  <defs>
    <style>
      .cls-1 {
        fill: #fff;
      }
    </style>
  </defs>
  <g id="_Слой_9" data-name="Слой 9">
    <g>
      <g>
        <g>
          <path class="cls-1" d="M1.7,54.64h-.14c-.2,0-.43-.02-.59-.17-.34-.32-.69-.7-.68-1.1,.02-.46,.52-.87,.81-1.04,.19-.11,.41-.12,.56-.12,.09,0,.18,0,.27,.01,.08,0,.15,0,.22,0H28.98c8.31,0,16.61,0,24.92,0,2.57,0,4.49-.9,5.87-2.76,1.68-2.26,1.72-5.35,.09-7.68-1.25-1.79-3.29-2.85-5.45-2.85-.62,0-1.24,.09-1.84,.26-2.74,.8-4.66,3.21-4.78,6.01v.07c0,.13-.01,.27-.04,.4-.12,.67-.56,1.07-1.15,1.07-.06,0-.12,0-.18-.01-.67-.09-1.05-.54-1.05-1.26,0-1.48,.36-2.9,1.1-4.24,1.6-2.91,4.64-4.72,7.93-4.72,.52,0,1.04,.05,1.55,.14,3.88,.7,6.78,3.67,7.39,7.56,0,.05,.03,.11,.06,.18l.06,.16v2.09c-.09,.27-.16,.55-.23,.82-.16,.61-.32,1.24-.6,1.83-1.7,3.53-4.54,5.32-8.45,5.33-7.92,.01-15.84,.01-23.75,.01H1.7Z"/>
          <path class="cls-1" d="M54.4,36.81c.5,0,1,.04,1.5,.13,3.75,.68,6.57,3.57,7.16,7.32,.02,.12,.07,.23,.11,.34v1.96c-.26,.87-.41,1.8-.8,2.61-1.64,3.41-4.42,5.16-8.19,5.17-7.97,.01-15.94,.01-23.91,.01-9.49,0-18.97,0-28.46,0-.08,0-.16,0-.25,0-.16,0-.31-.01-.4-.09-.26-.24-.6-.59-.58-.87,.01-.29,.37-.63,.66-.8,.11-.07,.26-.08,.41-.08,.16,0,.33,.02,.49,.02h0c8.89,0,17.78,0,26.66,0,8.36,0,16.73,0,25.09,0h0c2.5,0,4.58-.84,6.09-2.88,1.75-2.35,1.77-5.61,.09-8.01-1.33-1.9-3.47-2.98-5.69-2.98-.64,0-1.28,.09-1.92,.27-2.84,.83-4.86,3.37-4.99,6.28,0,.14,0,.29-.03,.43-.1,.53-.41,.84-.87,.84-.05,0-.09,0-.14,0-.56-.07-.79-.44-.8-.98,0-1.46,.36-2.82,1.06-4.1,1.56-2.85,4.55-4.57,7.68-4.57m0-.58h0c-3.4,0-6.53,1.87-8.18,4.87-.76,1.38-1.14,2.85-1.13,4.37,0,.87,.49,1.44,1.3,1.55,.07,0,.15,.01,.22,.01,.74,0,1.29-.5,1.44-1.31,.03-.16,.03-.3,.04-.44v-.07c.12-2.68,1.96-4.99,4.57-5.75,.57-.17,1.16-.25,1.76-.25,2.07,0,4.02,1.02,5.21,2.73,1.56,2.23,1.52,5.18-.08,7.34-1.32,1.78-3.16,2.64-5.63,2.64-8.37,0-16.74,0-25.1,0H11.08s-8.94,0-8.94,0c-.07,0-.14,0-.21,0-.09,0-.19-.01-.28-.01-.18,0-.45,.02-.7,.16-.09,.06-.92,.56-.95,1.27-.02,.52,.37,.96,.77,1.32,.24,.22,.55,.25,.79,.25,.05,0,.1,0,.14,0h.11s10.95,0,10.95,0c5.84,0,11.67,0,17.51,0,7.97,0,15.94,0,23.91-.01,3.97,0,6.99-1.91,8.71-5.49,.29-.61,.46-1.25,.62-1.88,.07-.27,.14-.54,.22-.81l.02-.08v-2.14l-.03-.09s-.03-.09-.05-.13c-.02-.04-.04-.1-.04-.12-.63-4.01-3.62-7.08-7.63-7.8-.53-.1-1.07-.14-1.6-.14h0Z"/>
        </g>
        <g>
          <path class="cls-1" d="M17.7,48.74c-.23,0-.47,0-.7-.03-.63-.07-1.03-.5-1.05-1.14-.02-.63,.36-1.09,.99-1.19,.29-.05,.57-.05,.84-.05h9.55c2.36,0,4.73,0,7.1,0,1.84,0,3.18-.63,4.12-1.91,1.04-1.43,1.23-2.97,.54-4.57-.68-1.6-1.91-2.54-3.66-2.8-.22-.03-.44-.05-.66-.05-2.41,0-4.47,1.92-4.59,4.29v.11c-.01,.23-.02,.53-.2,.72-.37,.39-.71,.61-1.03,.68-.07,.01-.13,.02-.2,.02-.5,0-.9-.39-.96-.92-.05-.45-.04-.94,.04-1.41,.54-3.33,3.57-5.93,6.9-5.93,.13,0,.26,0,.39,.01,3.78,.23,6.64,3.15,6.79,6.95,.13,3.44-2.57,6.64-6.04,7.14-.51,.07-1.04,.07-1.51,.08-1.33,0-2.65,0-3.98,0h-12.66Z"/>
          <path class="cls-1" d="M34.7,34.84c.12,0,.25,0,.37,.01,3.65,.22,6.37,3.01,6.52,6.68,.13,3.3-2.45,6.36-5.79,6.84-.48,.07-.98,.07-1.46,.07-1.3,0-2.6,0-3.89,0s-2.71,0-4.06,0c-1.15,0-2.31,0-3.46,0-1.74,0-3.48,0-5.23,0-.22,0-.45,0-.67-.03-.51-.05-.78-.39-.79-.86-.01-.47,.24-.82,.74-.9,.26-.04,.53-.05,.79-.05,3.16,0,6.32,0,9.48,0,2.39,0,4.77,0,7.16,0h.02c1.78,0,3.27-.58,4.33-2.03,1.09-1.5,1.3-3.16,.57-4.86-.72-1.69-2.04-2.7-3.89-2.97-.24-.03-.47-.05-.71-.05-2.61,0-4.75,2.11-4.88,4.56-.01,.22,0,.51-.12,.65-.24,.26-.55,.53-.88,.6-.05,0-.09,.01-.14,.01-.35,0-.63-.28-.67-.66-.05-.44-.03-.9,.04-1.34,.52-3.23,3.43-5.69,6.62-5.69m0-.58h0c-3.47,0-6.63,2.71-7.19,6.17-.08,.5-.09,1.01-.04,1.49,.08,.68,.6,1.18,1.25,1.18,.09,0,.17,0,.26-.03,.39-.08,.77-.33,1.18-.77,.26-.27,.27-.64,.27-.91v-.11c.12-2.22,2.05-4.02,4.31-4.02,.21,0,.42,.02,.62,.05,1.64,.24,2.8,1.12,3.44,2.62,.64,1.51,.47,2.95-.51,4.29-.88,1.21-2.15,1.8-3.87,1.8-2.41,0-4.79,0-7.18,0-2.01,0-4.03,0-6.04,0h-3.44c-.26,0-.57,0-.88,.06-.77,.12-1.25,.71-1.23,1.49,.02,.78,.54,1.33,1.31,1.41,.26,.03,.51,.03,.73,.03,1.74,0,3.48,0,5.23,0h3.46s2.03,0,2.03,0h2.03c1.3,0,2.6,0,3.9,0,.48,0,1.01,0,1.55-.08,3.61-.52,6.42-3.85,6.28-7.43-.15-3.95-3.12-6.99-7.06-7.23-.14,0-.27-.01-.41-.01h0Z"/>
        </g>
        <g>
          <path class="cls-1" d="M27.2,66.41c-.49,0-.89-.14-1.14-.41-.21-.22-.32-.51-.31-.85,.01-.42,.22-1.13,1.45-1.15h16.8c1.41,0,2.83,0,4.24,0,1.6,0,2.7-.87,2.95-2.31,.12-.68-.06-1.41-.49-2-.42-.58-1.04-.98-1.71-1.08-.15-.02-.3-.03-.44-.03-1.39,0-2.56,1-2.72,2.33-.05,.39-.19,1.56-1.22,1.56-.04,0-.08,0-.12,0-.33-.03-.59-.16-.78-.38-.25-.31-.34-.78-.28-1.45,.24-2.46,2.44-4.42,5.01-4.47h.09c2.46,0,4.67,1.9,5.04,4.32,.22,1.48-.21,2.99-1.19,4.13-.99,1.15-2.41,1.78-4.02,1.79-3,0-6,.01-9,.01-2.77,0-12.16,0-12.16,0Z"/>
          <path class="cls-1" d="M48.54,56.45c2.36,0,4.41,1.81,4.75,4.08,.41,2.7-1.54,5.58-4.93,5.59-3,0-6,.01-9.01,.01-4.05,0-8.1,0-12.15,0-.75,0-1.18-.37-1.16-.96,.02-.57,.41-.86,1.16-.88,.06,0,.11,0,.17,0,.09,0,.17,0,.26,0,3.38,0,6.77,0,10.15,0h.06c2.02,0,4.03,0,6.05,0,1.45,0,2.9,0,4.35,0,1.74,0,2.96-.98,3.23-2.55,.27-1.57-.87-3.17-2.43-3.41-.16-.03-.33-.04-.49-.04-1.51,0-2.82,1.09-3,2.59-.11,.9-.4,1.31-.93,1.31-.03,0-.07,0-.1,0-.64-.06-.89-.54-.79-1.51,.23-2.31,2.31-4.16,4.72-4.21,.03,0,.06,0,.08,0m0-.58h-.09c-2.71,.05-5.03,2.13-5.29,4.73-.07,.75,.04,1.3,.34,1.67,.16,.19,.46,.43,.97,.48,.05,0,.1,0,.15,0,.86,0,1.36-.61,1.5-1.82,.14-1.18,1.18-2.08,2.43-2.08,.13,0,.27,.01,.4,.03,.59,.09,1.14,.44,1.52,.96,.38,.53,.54,1.18,.44,1.78-.22,1.3-1.22,2.07-2.67,2.07-1.45,0-2.9,0-4.35,0h-3.02s-3.02,0-3.02,0h-10.21s-.13,0-.13,0h-.13s-.18,0-.18,0c-1.56,.02-1.72,1.1-1.73,1.43-.01,.41,.12,.78,.39,1.06,.31,.32,.78,.5,1.35,.5h3.77c2.79,0,5.58,0,8.38,0,3,0,6.01,0,9.01-.01,1.69,0,3.2-.68,4.24-1.89,1.04-1.21,1.49-2.8,1.26-4.36-.39-2.56-2.73-4.57-5.32-4.57h0Z"/>
        </g>
        <g>
          <path class="cls-1" d="M17.55,60.52c-.28,0-.52-.03-.73-.08-.58-.15-.91-.61-.87-1.2,.04-.61,.41-1.02,1.01-1.09,.23-.03,.47-.03,.66-.03h18.63c.06,0,.12,0,.18,0,.07,0,.15,0,.22,0,.13,0,.32,.01,.48,.12,.18,.12,.63,.46,.78,.91,.17,.53-.12,1.06-.7,1.27-.29,.11-.61,.12-.88,.12-3.23,0-6.47,0-9.7,0h-9.07Z"/>
          <path class="cls-1" d="M36.63,58.39c.12,0,.23,.01,.32,.07,.27,.18,.56,.46,.66,.76,.13,.4-.12,.76-.52,.91-.24,.09-.52,.1-.78,.1-3.24,0-6.48,0-9.72,0-3.02,0-6.03,0-9.05,0-.22,0-.45-.02-.66-.07-.46-.12-.68-.46-.66-.91,.03-.44,.28-.76,.76-.83,.22-.03,.45-.03,.67-.03,1.82,0,3.65,0,5.47,0,1.27,0,2.54,0,3.82,0s2.57,0,3.85,0c1.81,0,3.62,0,5.44,0h0c.13,0,.27-.02,.4-.02m0-.58c-.08,0-.16,0-.24,0-.05,0-.11,0-.16,0-1.81,0-3.63,0-5.44,0h-1.93s-1.93,0-1.93,0h-1.91s-1.91,0-1.91,0h-5.47s-.03,0-.03,0c-.23,0-.47,0-.71,.03-.73,.1-1.21,.62-1.26,1.36-.05,.73,.38,1.32,1.09,1.5,.24,.06,.5,.09,.81,.09,3.02,0,6.03,0,9.05,0,3.24,0,6.48,0,9.72,0,.3,0,.65-.02,.98-.14,.73-.27,1.1-.95,.87-1.63-.17-.52-.63-.89-.89-1.06-.22-.15-.47-.17-.64-.17h0Z"/>
        </g>
        <g>
          <path class="cls-1" d="M59.31,60.53c-.64,0-1.27,0-1.91-.02-.38,0-.71-.15-.94-.4-.22-.23-.32-.54-.3-.87,.04-.66,.54-1.1,1.29-1.12,.25,0,.51,0,.76,0h1.11s1.14,0,1.14,0c.23,0,.46,0,.68,0,.78,.02,1.31,.46,1.34,1.14,.01,.32-.09,.62-.31,.85-.23,.25-.57,.39-.95,.4-.63,.01-1.26,.02-1.89,.02Z"/>
          <path class="cls-1" d="M60.44,58.4c.23,0,.45,0,.68,0,.64,.02,1.03,.35,1.06,.86,.02,.51-.37,.94-.98,.95-.63,.01-1.26,.02-1.88,.02s-1.27,0-1.91-.02c-.61-.01-.99-.45-.96-.96,.03-.5,.4-.83,1.01-.85,.25,0,.5,0,.75,0,.37,0,.73,0,1.1,0h.05c.36,0,.73,0,1.09,0m0-.58c-.19,0-.38,0-.58,0h-.52s-.05,0-.05,0c-.18,0-.36,0-.54,0-.18,0-.37,0-.55,0-.26,0-.51,0-.77,0-.89,.02-1.52,.58-1.57,1.39-.02,.4,.11,.79,.38,1.08,.28,.31,.69,.48,1.15,.49,.63,.02,1.28,.02,1.92,.02s1.26,0,1.9-.02c.46-.01,.87-.19,1.15-.49,.27-.29,.41-.67,.39-1.06-.04-.82-.69-1.39-1.62-1.41-.23,0-.46,0-.69,0h0Z"/>
        </g>
        <g>
          <path class="cls-1" d="M11.56,48.72c-.14,0-.28,0-.42-.01-.67-.05-1.08-.5-1.09-1.18,0-.66,.42-1.13,1.05-1.16,.37-.02,.74-.03,1.11-.03,.41,0,.8,.01,1.18,.04,.62,.05,1.02,.53,.99,1.2-.02,.64-.42,1.06-1.06,1.12-.15,.01-.3,.02-.45,.02-.11,0-.46,0-.52,0,0,0-.69,.01-.8,.01Z"/>
          <path class="cls-1" d="M12.21,46.63c.39,0,.77,.01,1.16,.04,.49,.04,.75,.41,.73,.9-.02,.49-.3,.8-.79,.84-.14,.01-.28,.02-.42,.02-.23,0-.45-.01-.68-.01,0,0,0,0,0,0-.21,0-.43,0-.64,0-.13,0-.26,0-.39-.01-.53-.04-.82-.39-.82-.89,0-.47,.27-.84,.77-.87,.36-.02,.73-.03,1.09-.03m0-.58c-.36,0-.73,.01-1.12,.03-.78,.04-1.32,.64-1.32,1.45,0,.83,.53,1.4,1.35,1.46,.15,.01,.29,.01,.44,.01,.11,0,.22,0,.33,0,.1,0,.21,0,.31,0h.23s.06,0,.09,0c.12,0,.23,0,.35,0,.18,0,.33,0,.47-.02,.78-.07,1.29-.61,1.32-1.4,.03-.82-.49-1.44-1.26-1.5-.38-.03-.78-.04-1.2-.04h0Z"/>
        </g>
        <g>
          <path class="cls-1" d="M22.03,66.38c-.4,0-.8-.02-1.19-.05-.62-.05-1.01-.56-.96-1.24,.05-.63,.46-1.04,1.1-1.08,.14,0,.28-.01,.42-.01h.63s.55,0,.66,0c.14,0,.28,0,.42,.01,.63,.05,1.04,.45,1.1,1.07,.06,.69-.32,1.19-.94,1.24-.4,.03-.81,.05-1.22,.05Z"/>
          <path class="cls-1" d="M22.67,64.29c.13,0,.26,0,.39,.01,.49,.04,.79,.32,.83,.81,.04,.49-.19,.89-.68,.93-.4,.03-.79,.05-1.19,.05s-.78-.02-1.17-.05c-.49-.04-.73-.44-.69-.93s.33-.78,.83-.82c.13,0,.27-.01,.4-.01,.21,0,.42,0,.62,0h.01c.21,0,.43,0,.64,0m0-.58c-.11,0-.23,0-.34,0-.1,0-.2,0-.3,0h0c-.11,0-.21,0-.32,0-.11,0-.21,0-.32,0-.15,0-.29,0-.44,.01-.78,.06-1.3,.57-1.37,1.35-.07,.83,.45,1.48,1.22,1.55,.4,.03,.81,.05,1.22,.05s.83-.02,1.24-.05c.78-.07,1.28-.71,1.2-1.56-.06-.77-.59-1.28-1.36-1.34-.15-.01-.29-.01-.44-.01h0Z"/>
        </g>
        <g>
          <path class="cls-1" d="M7.3,48.72c-.64-.01-1.18-.56-1.17-1.19,0-.64,.55-1.18,1.19-1.18,.65,0,1.18,.52,1.2,1.16,0,.32-.11,.63-.33,.85-.23,.23-.53,.36-.86,.36h-.03Z"/>
          <path class="cls-1" d="M7.33,46.63c.49,0,.89,.39,.91,.88,.01,.51-.39,.92-.9,.92,0,0-.01,0-.02,0-.49-.01-.9-.42-.89-.9,0-.47,.43-.89,.9-.89h0m0-.58h0c-.79,0-1.47,.68-1.48,1.47,0,.8,.65,1.47,1.46,1.48h0s.03,0,.03,0c.41,0,.79-.16,1.07-.45,.28-.28,.42-.66,.41-1.06-.02-.79-.69-1.44-1.48-1.44h0Z"/>
        </g>
        <g>
          <path class="cls-1" d="M13.18,60.5c-.63-.01-1.18-.57-1.18-1.2,0-.64,.53-1.17,1.18-1.18,.66,0,1.19,.5,1.21,1.14,.01,.32-.11,.64-.34,.87-.23,.23-.53,.36-.85,.36h-.02Z"/>
          <path class="cls-1" d="M13.2,58.41c.5,0,.89,.37,.9,.86,.02,.51-.4,.94-.9,.94,0,0-.01,0-.02,0-.47,0-.9-.44-.9-.91,0-.48,.41-.89,.9-.89,0,0,0,0,.01,0m0-.58h-.02c-.81,0-1.47,.67-1.47,1.47,0,.78,.68,1.47,1.46,1.49h0s.02,0,.02,0c.4,0,.77-.16,1.05-.45,.28-.29,.43-.68,.42-1.08-.02-.8-.68-1.42-1.48-1.42h0Z"/>
        </g>
      </g>
      <path class="cls-1" d="M23.62,29.76c-1.07,.11-2.12,.15-3.13,.35-2.42,.48-3.87,2.51-3.75,5.07,.13,2.61,1.66,3.73,4.1,3.89,.48,.03,.97,.09,1.44,.03,2.19-.27,3.04,.52,3.01,2.87-.03,2.28-.95,2.68-2.96,2.66-5.87-.04-9.22-1.95-10.73-6.38-1.73-5.11,.38-9.94,5.72-13.35,1.77-8.91,6.54-14.53,15.5-15.91,.97-.15,2.02-1,2.68-1.81C40.25,1.34,46.28-1.13,53.64,.48c8.14,1.78,12.65,7.44,14.21,16.05,7.45,4.44,10.9,10.77,10.68,18.86-.12,4.39-3.6,8.17-8.08,8.87-1.06,.16-2.15,.16-3.28,.12-1.46-.05-2.62-1.25-2.62-2.71h0c0-1.43,1.11-2.61,2.54-2.7,.45-.03,.89-.06,1.34-.1,3.23-.31,4.76-1.94,4.49-5.11-.49-5.82-3.13-10.27-8.78-12.4-1.62-.61-2.15-1.34-2.14-3.08,.04-6.26-3.83-11.16-9.54-12.41-5.65-1.24-10.91,1.5-13.83,6.98-.45,.85-1.76,1.81-2.63,1.77-8.47-.42-14.09,5.91-12.4,14.16,.05,.26,0,.55,0,.99Z"/>
    </g>
  </g>
</svg>